<svg xmlns="http://www.w3.org/2000/svg" xmlns:xlink="http://www.w3.org/1999/xlink" viewBox="0 0 786.97 248.18"><defs><style>.cls-1{fill:url(#linear-gradient);}.cls-2{fill:url(#linear-gradient-2);}.cls-3{fill:url(#linear-gradient-3);}.cls-4{fill:url(#linear-gradient-4);}.cls-5{fill:url(#linear-gradient-5);}.cls-6{fill:url(#linear-gradient-6);}.cls-7{fill:url(#linear-gradient-7);}.cls-8{fill:url(#linear-gradient-8);}.cls-9{fill:url(#linear-gradient-9);}.cls-10{fill:url(#linear-gradient-10);}.cls-11{fill:url(#linear-gradient-11);}.cls-12{fill:url(#linear-gradient-12);}.cls-13{fill:url(#linear-gradient-13);}.cls-14{fill:url(#linear-gradient-14);}.cls-15{fill:url(#linear-gradient-15);}.cls-16{fill:url(#linear-gradient-16);}.cls-17{fill:url(#linear-gradient-17);}.cls-18{fill:url(#linear-gradient-18);}.cls-19{fill:url(#linear-gradient-19);}.cls-20{fill:url(#linear-gradient-20);}.cls-21{fill:url(#linear-gradient-21);}.cls-22{fill:url(#linear-gradient-22);}.cls-23{fill:url(#linear-gradient-23);}.cls-24{fill:url(#linear-gradient-24);}.cls-25{fill:url(#linear-gradient-25);}.cls-26{fill:url(#linear-gradient-26);}.cls-27{fill:url(#linear-gradient-27);}.cls-28{fill:url(#linear-gradient-28);}.cls-29{fill:url(#linear-gradient-29);}</style><linearGradient id="linear-gradient" x1="599.52" y1="-209.97" x2="654.87" y2="-209.97" gradientTransform="matrix(1, 0, 0, -1, 0, -106.82)" gradientUnits="userSpaceOnUse"><stop offset="0.21" stop-color="#3a7080"/><stop offset="0.33" stop-color="#4fa8a8"/><stop offset="0.52" stop-color="#7ec8c8"/><stop offset="0.73" stop-color="#4fa8a8"/><stop offset="1" stop-color="#3a7080"/></linearGradient><linearGradient id="linear-gradient-2" x1="459.32" y1="-232.29" x2="566.57" y2="-232.29" xlink:href="#linear-gradient"/><linearGradient id="linear-gradient-3" x1="668.21" y1="-214.55" x2="786.97" y2="-214.55" xlink:href="#linear-gradient"/><linearGradient id="linear-gradient-4" x1="319.59" y1="-209.08" x2="425.63" y2="-209.08" xlink:href="#linear-gradient"/><linearGradient id="linear-gradient-5" x1="16.27" y1="-131.24" x2="36.61" y2="-131.24" gradientTransform="matrix(1, 0, 0, -1, 0, -106.82)" gradientUnits="userSpaceOnUse"><stop offset="0" stop-color="#3a7080"/><stop offset="0.33" stop-color="#4fa8a8"/><stop offset="0.52" stop-color="#7ec8c8"/><stop offset="0.73" stop-color="#4fa8a8"/><stop offset="1" stop-color="#3a7080"/></linearGradient><linearGradient id="linear-gradient-6" x1="67.13" y1="-182.09" x2="87.47" y2="-182.09" xlink:href="#linear-gradient-5"/><linearGradient id="linear-gradient-7" x1="168.84" y1="-182.09" x2="189.18" y2="-182.09" xlink:href="#linear-gradient-5"/><linearGradient id="linear-gradient-8" x1="221.73" y1="-131.24" x2="242.07" y2="-131.24" gradientTransform="matrix(0.23, 0.97, 0.97, -0.23, 306.35, -231.43)" xlink:href="#linear-gradient-5"/><linearGradient id="linear-gradient-9" x1="117.98" y1="-230.91" x2="138.32" y2="-230.91" xlink:href="#linear-gradient-5"/><linearGradient id="linear-gradient-10" x1="67.13" y1="-279.73" x2="87.47" y2="-279.73" xlink:href="#linear-gradient-5"/><linearGradient id="linear-gradient-11" x1="168.84" y1="-279.73" x2="189.18" y2="-279.73" xlink:href="#linear-gradient-5"/><linearGradient id="linear-gradient-12" x1="16.27" y1="-328.55" x2="36.61" y2="-328.55" gradientTransform="matrix(0.02, 1, 1, -0.02, 354.34, 188.16)" xlink:href="#linear-gradient-5"/><linearGradient id="linear-gradient-13" x1="219.69" y1="-328.55" x2="240.03" y2="-328.55" xlink:href="#linear-gradient-5"/><linearGradient id="linear-gradient-14" x1="52.89" y1="-132.25" x2="87.47" y2="-132.25" xlink:href="#linear-gradient-5"/><linearGradient id="linear-gradient-15" x1="170.87" y1="-132.25" x2="205.45" y2="-132.25" xlink:href="#linear-gradient-5"/><linearGradient id="linear-gradient-16" x1="213.59" y1="-172.94" x2="248.17" y2="-172.94" xlink:href="#linear-gradient-5"/><linearGradient id="linear-gradient-17" x1="111.88" y1="-189.21" x2="146.46" y2="-189.21" xlink:href="#linear-gradient-5"/><linearGradient id="linear-gradient-18" x1="8.14" y1="-172.94" x2="42.72" y2="-172.94" xlink:href="#linear-gradient-5"/><linearGradient id="linear-gradient-19" x1="67.13" y1="-229.9" x2="101.71" y2="-229.9" xlink:href="#linear-gradient-5"/><linearGradient id="linear-gradient-20" x1="154.6" y1="-229.9" x2="189.18" y2="-229.9" xlink:href="#linear-gradient-5"/><linearGradient id="linear-gradient-21" x1="111.88" y1="-272.61" x2="146.46" y2="-272.61" gradientTransform="matrix(0.07, 1, 1, -0.07, 391.94, 17.62)" xlink:href="#linear-gradient-5"/><linearGradient id="linear-gradient-22" x1="8.14" y1="-286.85" x2="42.72" y2="-286.85" xlink:href="#linear-gradient-5"/><linearGradient id="linear-gradient-23" x1="50.86" y1="-329.57" x2="85.44" y2="-329.57" xlink:href="#linear-gradient-5"/><linearGradient id="linear-gradient-24" x1="170.87" y1="-329.57" x2="205.45" y2="-329.57" xlink:href="#linear-gradient-5"/><linearGradient id="linear-gradient-25" x1="213.59" y1="-286.85" x2="248.17" y2="-286.85" xlink:href="#linear-gradient-5"/><linearGradient id="linear-gradient-26" x1="101.71" y1="-132.25" x2="154.59" y2="-132.25" xlink:href="#linear-gradient-5"/><linearGradient id="linear-gradient-27" x1="0" y1="-229.9" x2="52.88" y2="-229.9" xlink:href="#linear-gradient-5"/><linearGradient id="linear-gradient-28" x1="205.46" y1="-229.9" x2="258.34" y2="-229.9" xlink:href="#linear-gradient-5"/><linearGradient id="linear-gradient-29" x1="101.71" y1="-329.57" x2="154.59" y2="-329.57" xlink:href="#linear-gradient-5"/></defs><g id="Layer_2" data-name="Layer 2"><g id="Layer_1-2" data-name="Layer 1"><path class="cls-1" d="M646.6,47.94c-9.06-1.08-19.64-.56-28.28,2.19-10.55,3.36-18.81,15.29-18.8,25.92v74.63a8.36,8.36,0,0,0,8.5,8.21h2.53a8.35,8.35,0,0,0,8.5-8.2h0V98.28c0-5.93-.33-12,.19-17.91.3-3.36,1-6.81,3-9.57,2.41-3.35,6.5-5.26,10.65-6a63.84,63.84,0,0,1,13.18-.46,8.19,8.19,0,0,0,1.28-16.26Z"/><path class="cls-2" d="M459.56,57.5c0,17-.58,33.94.06,50.9.57,15.19,5.09,29.21,16.68,40.06,5.94,5.56,14,7.85,21.46,11.08a9.41,9.41,0,0,1,5.75,8.6v25.35a9.77,9.77,0,0,0,19.53,0V168.08a9.47,9.47,0,0,1,6.67-9l6.8-2.19c14.93-4.81,24.58-18.5,27.94-32.9,2.32-10,2-21.17,2.1-31.35.07-7.56-.11-15.12-.34-22.67-.18-5.6,1.16-13.4-2.41-18.25a9.49,9.49,0,0,0-15.17,0c-2.27,3.11-2.27,7.21-2.18,11l.73,31.16c.3,12.88.31,26.73-7.29,37.31-11.25,15.66-36.58,17.52-50.52,4-8.25-8-9.39-18.77-9.41-29.5q0-24.12,0-48.26a9.6,9.6,0,0,0-9.77-9.4h-.81A9.6,9.6,0,0,0,459.56,57.5Z"/><path class="cls-3" d="M786.83,98.52c-.85-46-61.67-69.32-96.65-40.59-11.69,9.6-19.6,23-21.52,37.77a61.76,61.76,0,0,0,8.06,38.77c6.38,11,16.34,20.34,28.72,24.71,13.47,4.75,28,2.5,40.27-4.28,5-2.78,10.38-6.17,14.12-10.5,1.53-1.76,6.11-8.31,6.64-2.4.22,2.52-.33,16.51-.25,19.06.4,12.3,19.8,12,19.8-.31C786.08,143.15,787.38,115.78,786.83,98.52Zm-61,48c-23.3,0-42.2-19.32-42.2-43.16s18.9-43.14,42.2-43.14S768,79.53,768,103.36s-18.85,43.14-42.2,43.14Z"/><path class="cls-4" d="M335.75,58.37a43.61,43.61,0,0,0-9.83,11.84c-4.77,8.48-6.33,18.25-6.33,27.81v51.45a9.6,9.6,0,0,0,9.77,9.43h.1a9.61,9.61,0,0,0,9.77-9.33c.2-18.58.43-37.12.43-55.66,0-17.8,15.37-31.63,33.75-31.45a32.91,32.91,0,0,1,21.27,7.86c8.45,7.45,10.35,18.4,10.82,28.87.66,15.1.35,30.15.35,45.25v5a9.77,9.77,0,0,0,19.53,0c0-11.77-.12-23.54.14-35.31.41-18.73.51-39.51-14.29-53.78C401.3,50.78,386.88,45.83,373,45.63,359.51,45.48,345.83,49.83,335.75,58.37Z"/><circle class="cls-5" cx="26.44" cy="24.42" r="10.17"/><circle class="cls-6" cx="77.3" cy="75.27" r="10.17"/><circle class="cls-7" cx="179.01" cy="75.27" r="10.17"/><circle class="cls-8" cx="231.9" cy="24.42" r="10.17" transform="translate(154.85 244.51) rotate(-76.72)"/><circle class="cls-9" cx="128.15" cy="124.09" r="10.17"/><circle class="cls-10" cx="77.3" cy="172.91" r="10.17"/><circle class="cls-11" cx="179.01" cy="172.91" r="10.17"/><circle class="cls-12" cx="26.44" cy="221.73" r="10.17" transform="matrix(0.02, -1, 1, 0.02, -195.81, 243.35)"/><circle class="cls-13" cx="229.86" cy="221.73" r="10.17"/><circle class="cls-14" cx="70.18" cy="25.43" r="17.29"/><circle class="cls-15" cx="188.16" cy="25.43" r="17.29"/><circle class="cls-16" cx="230.88" cy="66.12" r="17.29"/><circle class="cls-17" cx="129.17" cy="82.39" r="17.29"/><circle class="cls-18" cx="25.43" cy="66.12" r="17.29"/><circle class="cls-19" cx="84.42" cy="123.08" r="17.29"/><circle class="cls-20" cx="171.89" cy="123.08" r="17.29"/><circle class="cls-21" cx="129.17" cy="165.79" r="17.29" transform="translate(-45.36 282.88) rotate(-85.93)"/><circle class="cls-22" cx="25.43" cy="180.03" r="17.29"/><circle class="cls-23" cx="68.15" cy="222.75" r="17.29"/><circle class="cls-24" cx="188.16" cy="222.75" r="17.29"/><circle class="cls-25" cx="230.88" cy="180.03" r="17.29"/><ellipse class="cls-26" cx="128.15" cy="25.43" rx="26.44" ry="25.43"/><ellipse class="cls-27" cx="26.44" cy="123.08" rx="26.44" ry="25.43"/><ellipse class="cls-28" cx="231.9" cy="123.08" rx="26.44" ry="25.43"/><ellipse class="cls-29" cx="128.15" cy="222.75" rx="26.44" ry="25.43"/></g></g></svg>