<svg id="Layer_1" data-name="Layer 1" xmlns="http://www.w3.org/2000/svg" xmlns:xlink="http://www.w3.org/1999/xlink" viewBox="0 0 816.31 291.67"><defs><style>.cls-1{fill:url(#linear-gradient);}.cls-2{fill:url(#linear-gradient-2);}.cls-3{fill:url(#linear-gradient-3);}.cls-4{fill:url(#linear-gradient-4);}.cls-5{fill:url(#linear-gradient-5);}.cls-6{fill:url(#linear-gradient-6);}.cls-7{fill:url(#linear-gradient-7);}.cls-8{fill:url(#linear-gradient-8);}.cls-9{fill:url(#linear-gradient-9);}.cls-10{fill:url(#linear-gradient-10);}.cls-11{fill:url(#linear-gradient-11);}.cls-12{fill:url(#linear-gradient-12);}.cls-13{fill:url(#linear-gradient-13);}.cls-14{fill:url(#linear-gradient-14);}.cls-15{fill:url(#linear-gradient-15);}.cls-16{fill:url(#linear-gradient-16);}.cls-17{fill:url(#linear-gradient-17);}.cls-18{fill:url(#linear-gradient-18);}.cls-19{fill:url(#linear-gradient-19);}.cls-20{fill:url(#linear-gradient-20);}.cls-21{fill:url(#linear-gradient-21);}.cls-22{fill:url(#linear-gradient-22);}.cls-23{fill:url(#linear-gradient-23);}.cls-24{fill:url(#linear-gradient-24);}.cls-25{fill:url(#linear-gradient-25);}.cls-26{fill:url(#linear-gradient-26);}.cls-27{fill:url(#linear-gradient-27);}.cls-28{fill:url(#linear-gradient-28);}.cls-29{fill:url(#linear-gradient-29);}</style><linearGradient id="linear-gradient" x1="613.69" y1="128.08" x2="669.04" y2="128.08" gradientUnits="userSpaceOnUse"><stop offset="0" stop-color="#b27f2c"/><stop offset="0.21" stop-color="#e0be61"/><stop offset="0.33" stop-color="#f7dd7b"/><stop offset="0.52" stop-color="#fdf1a4"/><stop offset="0.73" stop-color="#f7dd7b"/><stop offset="1" stop-color="#b27f2c"/></linearGradient><linearGradient id="linear-gradient-2" x1="473.49" y1="150.37" x2="580.73" y2="150.37" xlink:href="#linear-gradient"/><linearGradient id="linear-gradient-3" x1="682.38" y1="132.66" x2="801.15" y2="132.66" xlink:href="#linear-gradient"/><linearGradient id="linear-gradient-4" x1="333.76" y1="127.2" x2="439.8" y2="127.2" xlink:href="#linear-gradient"/><linearGradient id="linear-gradient-5" x1="30.44" y1="49.34" x2="50.79" y2="49.34" xlink:href="#linear-gradient"/><linearGradient id="linear-gradient-6" x1="81.3" y1="100.19" x2="101.64" y2="100.19" xlink:href="#linear-gradient"/><linearGradient id="linear-gradient-7" x1="183.01" y1="100.19" x2="203.35" y2="100.19" xlink:href="#linear-gradient"/><linearGradient id="linear-gradient-8" x1="235.9" y1="49.34" x2="256.24" y2="49.34" xlink:href="#linear-gradient"/><linearGradient id="linear-gradient-9" x1="132.15" y1="149.01" x2="152.5" y2="149.01" xlink:href="#linear-gradient"/><linearGradient id="linear-gradient-10" x1="81.3" y1="197.83" x2="101.64" y2="197.83" xlink:href="#linear-gradient"/><linearGradient id="linear-gradient-11" x1="183.01" y1="197.83" x2="203.35" y2="197.83" xlink:href="#linear-gradient"/><linearGradient id="linear-gradient-12" x1="30.44" y1="246.65" x2="50.79" y2="246.65" xlink:href="#linear-gradient"/><linearGradient id="linear-gradient-13" x1="233.86" y1="246.65" x2="254.2" y2="246.65" xlink:href="#linear-gradient"/><linearGradient id="linear-gradient-14" x1="67.06" y1="50.35" x2="101.64" y2="50.35" xlink:href="#linear-gradient"/><linearGradient id="linear-gradient-15" x1="185.04" y1="50.35" x2="219.62" y2="50.35" xlink:href="#linear-gradient"/><linearGradient id="linear-gradient-16" x1="227.76" y1="91.04" x2="262.34" y2="91.04" xlink:href="#linear-gradient"/><linearGradient id="linear-gradient-17" x1="126.05" y1="107.31" x2="160.63" y2="107.31" xlink:href="#linear-gradient"/><linearGradient id="linear-gradient-18" x1="22.31" y1="91.04" x2="56.89" y2="91.04" xlink:href="#linear-gradient"/><linearGradient id="linear-gradient-19" x1="81.3" y1="148" x2="115.88" y2="148" xlink:href="#linear-gradient"/><linearGradient id="linear-gradient-20" x1="168.77" y1="148" x2="203.35" y2="148" xlink:href="#linear-gradient"/><linearGradient id="linear-gradient-21" x1="126.05" y1="190.71" x2="160.63" y2="190.71" xlink:href="#linear-gradient"/><linearGradient id="linear-gradient-22" x1="22.31" y1="204.95" x2="56.89" y2="204.95" xlink:href="#linear-gradient"/><linearGradient id="linear-gradient-23" x1="65.03" y1="247.67" x2="99.61" y2="247.67" xlink:href="#linear-gradient"/><linearGradient id="linear-gradient-24" x1="185.04" y1="247.67" x2="219.62" y2="247.67" xlink:href="#linear-gradient"/><linearGradient id="linear-gradient-25" x1="227.76" y1="204.95" x2="262.34" y2="204.95" xlink:href="#linear-gradient"/><linearGradient id="linear-gradient-26" x1="115.88" y1="50.35" x2="168.77" y2="50.35" xlink:href="#linear-gradient"/><linearGradient id="linear-gradient-27" x1="14.17" y1="148" x2="67.06" y2="148" xlink:href="#linear-gradient"/><linearGradient id="linear-gradient-28" x1="219.62" y1="148" x2="272.51" y2="148" xlink:href="#linear-gradient"/><linearGradient id="linear-gradient-29" x1="115.88" y1="247.67" x2="168.77" y2="247.67" xlink:href="#linear-gradient"/></defs><path class="cls-1" d="M660.77,72.86c-9.06-1.08-19.64-.56-28.28,2.19-10.55,3.36-18.81,15.29-18.8,25.92q0,31.32,0,62.63v12a8.36,8.36,0,0,0,8.5,8.21h2.53a8.35,8.35,0,0,0,8.5-8.21v-52.4c0-5.93-.33-12,.19-17.91.3-3.36,1-6.81,3-9.57,2.41-3.35,6.5-5.26,10.65-6a64.07,64.07,0,0,1,13.18-.46A8.19,8.19,0,0,0,661.52,73Z"/><path class="cls-2" d="M473.73,82.42c0,17-.58,33.94.06,50.9.57,15.19,5.09,29.21,16.68,40.06,5.94,5.56,14,7.85,21.46,11.08a9.42,9.42,0,0,1,5.75,8.6v25.35a9.77,9.77,0,0,0,19.53,0V193a9.47,9.47,0,0,1,6.67-8.95l6.8-2.19c14.93-4.81,24.58-18.5,27.94-32.9,2.32-10,2-21.17,2.1-31.35.07-7.56-.11-15.12-.34-22.67-.18-5.6,1.16-13.4-2.41-18.25a9.49,9.49,0,0,0-15.17,0c-2.27,3.11-2.27,7.21-2.18,11l.73,31.16c.3,12.88.31,26.73-7.29,37.31-11.25,15.66-36.58,17.52-50.52,4-8.25-8-9.39-18.77-9.41-29.5q0-24.12-.05-48.26A9.61,9.61,0,0,0,484.31,73h-.81A9.6,9.6,0,0,0,473.73,82.42Z"/><path class="cls-3" d="M801,123.44c-.85-46-61.67-69.32-96.65-40.59-11.69,9.6-19.6,23-21.52,37.77a61.82,61.82,0,0,0,8.06,38.77c6.38,11,16.34,20.34,28.72,24.71,13.47,4.75,28,2.5,40.27-4.28,5-2.78,10.38-6.17,14.12-10.5,1.53-1.76,6.11-8.31,6.64-2.4.22,2.52-.33,16.51-.25,19.06.4,12.3,19.8,12,19.8-.31C800.25,168.07,801.55,140.7,801,123.44Zm-61,48c-23.3,0-42.2-19.32-42.2-43.16s18.9-43.14,42.2-43.14,42.2,19.31,42.2,43.14S763.35,171.42,740,171.42Z"/><path class="cls-4" d="M349.92,83.29a43.67,43.67,0,0,0-9.83,11.84c-4.77,8.48-6.33,18.25-6.33,27.81v51.45a9.6,9.6,0,0,0,9.77,9.43h.1a9.61,9.61,0,0,0,9.77-9.33c.2-18.58.43-37.12.43-55.66,0-17.8,15.37-31.63,33.75-31.45a32.92,32.92,0,0,1,21.27,7.86c8.45,7.45,10.35,18.4,10.82,28.87.66,15.1.35,30.15.35,45.25v5a9.77,9.77,0,0,0,19.53,0c0-11.77-.12-23.54.14-35.31.41-18.73.51-39.51-14.29-53.78-9.93-9.57-24.35-14.52-38.22-14.72C373.68,70.4,360,74.75,349.92,83.29Z"/><circle class="cls-5" cx="40.61" cy="49.34" r="10.17"/><circle class="cls-6" cx="91.47" cy="100.19" r="10.17"/><circle class="cls-7" cx="193.18" cy="100.19" r="10.17"/><circle class="cls-8" cx="246.07" cy="49.34" r="10.17"/><circle class="cls-9" cx="142.32" cy="149.01" r="10.17"/><circle class="cls-10" cx="91.47" cy="197.83" r="10.17"/><circle class="cls-11" cx="193.18" cy="197.83" r="10.17"/><circle class="cls-12" cx="40.61" cy="246.65" r="10.17"/><circle class="cls-13" cx="244.03" cy="246.65" r="10.17"/><circle class="cls-14" cx="84.35" cy="50.35" r="17.29"/><circle class="cls-15" cx="202.33" cy="50.35" r="17.29"/><circle class="cls-16" cx="245.05" cy="91.04" r="17.29"/><circle class="cls-17" cx="143.34" cy="107.31" r="17.29"/><circle class="cls-18" cx="39.6" cy="91.04" r="17.29"/><circle class="cls-19" cx="98.59" cy="148" r="17.29"/><circle class="cls-20" cx="186.06" cy="148" r="17.29"/><circle class="cls-21" cx="143.34" cy="190.71" r="17.29"/><circle class="cls-22" cx="39.6" cy="204.95" r="17.29"/><circle class="cls-23" cx="82.32" cy="247.67" r="17.29"/><circle class="cls-24" cx="202.33" cy="247.67" r="17.29"/><circle class="cls-25" cx="245.05" cy="204.95" r="17.29"/><ellipse class="cls-26" cx="142.32" cy="50.35" rx="26.44" ry="25.43"/><ellipse class="cls-27" cx="40.61" cy="148" rx="26.44" ry="25.43"/><ellipse class="cls-28" cx="246.07" cy="148" rx="26.44" ry="25.43"/><ellipse class="cls-29" cx="142.32" cy="247.67" rx="26.44" ry="25.43"/></svg>